<svg width="283" height="75" viewBox="0 0 283 75" xmlns="http://www.w3.org/2000/svg"><g fill="none" fill-rule="evenodd"><path d="M55.07 57.199c-.901-.395-1.07-.676-1.07-1.916 0-3.095.225-6.474.281-7.375.057-.844.225-1.465.676-1.465.507 0 .563.507.563.957 0 .733.225 1.916.507 2.872 1.239 4.167 4.56 5.687 8.051 5.687 5.068 0 7.545-3.434 7.545-6.418 0-2.76-.844-5.406-5.517-9.01l-2.591-2.027c-6.193-4.842-8.333-8.783-8.333-13.343 0-6.194 5.18-10.642 13.007-10.642 3.66 0 6.024.563 7.488.957.507.113.789.282.789.676 0 .732-.226 2.365-.226 6.756 0 1.238-.168 1.69-.619 1.69-.394 0-.563-.338-.563-1.014 0-.507-.282-2.252-1.464-3.716-.844-1.07-2.477-2.759-6.137-2.759-4.167 0-6.701 2.421-6.701 5.799 0 2.59 1.295 4.561 5.969 8.109l1.577 1.182c6.756 5.237 9.234 9.008 9.234 14.358 0 3.265-1.239 7.15-5.293 9.797-2.815 1.801-5.968 2.307-8.953 2.307-3.266 0-5.799-.393-8.22-1.462m43.171-13.908c0-3.041-.563-4.279-1.295-5.912-.394-.901-7.939-13.288-9.91-16.216-1.408-2.084-2.815-3.491-3.885-4.11-.732-.394-1.689-.732-2.364-.732-.451 0-.845-.112-.845-.507 0-.338.394-.507 1.07-.507 1.013 0 5.236.169 7.094.169 1.183 0 3.491-.169 6.025-.169.563 0 .845.169.845.507 0 .338-.394.395-1.239.62-.507.112-.788.563-.788 1.013 0 .45.281 1.126.675 1.914.789 1.69 8.671 15.259 9.572 16.834.563-1.349 7.657-13.737 8.446-15.483.563-1.238.788-2.195.788-2.927 0-.563-.225-1.182-1.182-1.408-.507-.112-1.014-.225-1.014-.563 0-.394.282-.507.957-.507 1.858 0 3.66.169 5.293.169 1.239 0 4.955-.169 6.025-.169.619 0 1.013.113 1.013.451 0 .394-.45.563-1.07.563-.563 0-1.633.225-2.477.676-1.183.563-1.802 1.238-3.04 2.758-1.859 2.253-9.742 15.483-10.755 17.905-.845 2.028-.845 3.772-.845 5.631v4.617c0 .901 0 3.266.169 5.63.113 1.634.62 2.871 2.309 3.097.788.113 2.027.224 2.815.224.62 0 .901.17.901.452 0 .394-.45.563-1.182.563-3.548 0-7.095-.169-8.615-.169-1.408 0-4.955.169-7.038.169-.788 0-1.238-.114-1.238-.563 0-.282.281-.452.9-.452.789 0 1.464-.111 1.971-.224 1.126-.226 1.633-1.463 1.745-3.097.169-2.364.169-4.729.169-5.63v-4.617" fill="#FFF"/><path d="M128.659 31.635c0-8.558 0-10.134-.113-11.936-.112-1.914-.563-2.815-2.421-3.209-.45-.113-1.408-.169-2.196-.169-.619 0-.957-.112-.957-.507 0-.394.394-.507 1.238-.507 2.985 0 6.532.169 7.715.169 1.914 0 6.193-.169 7.939-.169 3.547 0 7.319.338 10.36 2.422 1.576 1.069 3.828 3.941 3.828 7.712 0 4.167-1.745 7.997-7.432 12.614 5.011 6.306 8.896 11.316 12.218 14.808 3.154 3.266 5.462 3.66 6.307 3.828.619.113 1.126.168 1.576.168.45 0 .676.17.676.452 0 .449-.395.563-1.07.563h-5.349c-3.153 0-4.561-.282-6.025-1.07-2.421-1.296-4.56-3.941-7.713-8.277-2.253-3.096-4.843-6.926-5.575-7.77-.281-.338-.619-.394-1.013-.394l-4.899-.113c-.281 0-.45.113-.45.449v.79c0 5.236 0 9.685.282 12.049.168 1.634.506 2.871 2.195 3.097.845.113 2.084.224 2.76.224.45 0 .675.17.675.452 0 .394-.394.563-1.126.563-3.266 0-7.432-.169-8.277-.169-1.07 0-4.617.169-6.869.169-.733 0-1.127-.169-1.127-.563 0-.282.226-.452.901-.452.845 0 1.521-.111 2.028-.224 1.126-.226 1.407-1.463 1.632-3.097.282-2.364.282-6.813.282-11.993v-9.91zm6.644 4.449c0 .619.112.844.507 1.012 1.182.395 2.871.564 4.279.564 2.252 0 2.984-.224 3.997-.957 1.689-1.238 3.322-3.829 3.322-8.445 0-7.996-5.292-10.304-8.614-10.304-1.408 0-2.421.056-2.984.225-.395.113-.507.338-.507.788v17.117z" fill="#FFF"/><path d="M171.167 31.635c0-8.558 0-10.134-.111-11.936-.113-1.914-.676-2.871-1.915-3.153-.619-.169-1.351-.225-2.027-.225-.563 0-.901-.112-.901-.563 0-.338.451-.451 1.351-.451 2.141 0 5.687.169 7.32.169 1.408 0 4.731-.169 6.869-.169.733 0 1.183.113 1.183.451 0 .451-.338.563-.901.563s-1.013.056-1.689.169c-1.52.281-1.971 1.239-2.083 3.209-.113 1.802-.113 3.378-.113 11.936v9.91c0 5.462 0 9.91.225 12.331.169 1.52.564 2.533 2.252 2.759.789.113 2.028.224 2.873.224.619 0 .9.17.9.452 0 .394-.45.563-1.07.563-3.715 0-7.263-.169-8.784-.169-1.295 0-4.841.169-7.094.169-.732 0-1.126-.169-1.126-.563 0-.282.225-.452.901-.452.844 0 1.521-.111 2.026-.224 1.127-.226 1.465-1.182 1.633-2.815.281-2.365.281-6.813.281-12.275v-9.91" fill="#FFF"/><path d="M192.771 50.217c.112 4.39.845 5.855 1.971 6.249.957.338 2.027.393 2.927.393.62 0 .957.114.957.452 0 .449-.506.563-1.294.563-3.661 0-5.913-.169-6.982-.169-.507 0-3.153.169-6.081.169-.732 0-1.239-.057-1.239-.563 0-.338.338-.452.901-.452.732 0 1.745-.055 2.533-.281 1.465-.449 1.69-2.082 1.746-6.98l.507-33.333c0-1.127.169-1.915.732-1.915.619 0 1.127.732 2.084 1.746.675.732 9.233 9.91 17.453 18.074 3.829 3.827 11.431 11.935 12.389 12.837h.281l-.564-25.28c-.055-3.435-.563-4.505-1.914-5.068-.845-.338-2.196-.338-2.984-.338-.676 0-.902-.169-.902-.507 0-.45.621-.507 1.465-.507 2.928 0 5.63.169 6.813.169.619 0 2.759-.169 5.517-.169.733 0 1.295.057 1.295.507 0 .338-.338.507-1.013.507-.563 0-1.014 0-1.69.169-1.576.45-2.026 1.633-2.082 4.785l-.62 35.529c0 1.239-.226 1.746-.731 1.746-.62 0-1.295-.62-1.914-1.239-3.548-3.379-10.755-10.754-16.612-16.554-6.137-6.081-12.387-13.118-13.4-14.189h-.168l.619 23.649" fill="#FFF"/><path d="M252.901 34.338c1.802 2.758 22.341 35.142 23.747 36.944.957 1.239 1.803 1.915 3.268 2.366.956.282 1.631.336 2.138.336.395 0 .733.115.733.452 0 .394-.45.564-1.071.564h-1.689c-1.352 0-5.801 0-10.135-.114-1.463-.056-1.914-.169-1.914-.562 0-.34.281-.508.787-.62.281-.056.507-.563.114-1.296-3.096-5.516-17.723-28.217-20.313-32.439l-8.334 13.457c-.563.9-.844 1.746-.787 2.365.055.507.562.844 1.069.957.338.056.845.111 1.295.111.338 0 .676.17.676.508 0 .393-.394.507-1.126.507h-1.014c-.338 0-3.885-.169-5.293-.169-1.069 0-3.828.169-4.728.169h-.958c-.564 0-.845-.169-.845-.507 0-.338.338-.508.789-.508.394 0 1.238-.055 2.083-.281 1.633-.449 2.702-1.519 4.616-4.223l10.754-15.371-9.683-16.046c-1.352-2.252-2.704-3.604-4.674-4.223-.901-.281-1.801-.394-2.364-.394-.338 0-.564-.169-.564-.563 0-.338.395-.451 1.127-.451 1.352 0 5.912.169 8.558.169.788 0 3.941-.169 6.024-.169.789 0 1.127.113 1.127.507 0 .395-.338.507-.846.507-.338 0-1.069.056-1.519.225-.507.169-.676.563-.676.901 0 .338.225 1.013.562 1.632 2.422 4.505 4.956 8.615 7.152 12.444 1.634-2.478 6.812-10.304 7.657-11.88.451-.789.62-1.689.62-2.14 0-.394-.394-.844-.958-1.013-.562-.169-1.351-.169-1.802-.169-.337 0-.675-.112-.675-.507 0-.338.395-.507 1.183-.507 2.195 0 4.56.169 5.63.169 1.127 0 3.435-.169 5.518-.169.619 0 1.013.169 1.013.507 0 .338-.338.507-.9.507-.565 0-1.24.113-2.027.338-1.295.338-2.421 1.914-4.112 4.392l-9.233 13.287M33.333 35.983V.58h13.86v37.623c-3.66.08-8.453-.77-13.86-2.219m13.859 22.811h-13.86V43.241l13.86 7.248v8.306M16.698 11.668h13.86v23.536c-4.405-1.295-9.108-2.907-13.86-4.689V11.668m13.86 47.127h-13.86V34.524l13.86 7.265v17.006m-16.63 0H.066V25.783c4.042 2.13 8.634 4.545 13.862 7.286v25.726M.066 22.755h13.862v6.709A392.424 392.424 0 0 1 .066 23.772v-1.017" fill="#FFF"/><path d="M16.698 30.515v4.009c-.937-.493-1.87-.981-2.77-1.455v-3.605c.925.357 1.85.704 2.77 1.051m16.635 5.468v7.258c-.94-.493-1.862-.976-2.775-1.452v-6.585c.942.276 1.864.534 2.775.78"/></g></svg>