<svg xmlns="http://www.w3.org/2000/svg" xmlns:xlink="http://www.w3.org/1999/xlink" viewBox="0 0 313.5 85.9"><path fill="#284756" d="M104.8 36.8c0-10.1 8.3-18.4 18.4-18.4h12v.2c-.1 5.5-4.5 10.3-10 10.4h-2c-4.3 0-7.8 3.5-7.8 7.8v19.3c-.6 5.1-4.9 9-10 9.2h-.6V36.8zm151.5 28.4c-5.4-.4-9.6-4.9-9.6-10.3V36.7c-.3-4.6-4.2-8.3-8.9-8.3-4.8 0-8.7 3.7-8.9 8.4V55c0 5.4-4.2 9.9-9.6 10.3h-.7v-28c0-4.9-4-8.9-8.9-8.9-4.8 0-8.7 3.8-8.9 8.5V55c0 5.4-4.2 9.9-9.6 10.3h-.7V36.7c.3-10.3 8.8-18.5 19.1-18.5 5.3 0 10.4 2.2 14 6.1 3.6-3.9 8.7-6.1 14-6.1 10.6 0 19.1 8.6 19.1 19.1v27.9h-.4zm-98-9.4c-8 0-14.4-6.2-14.4-13.8 0-7.6 6.5-13.8 14.4-13.8 8 0 14.4 6.2 14.4 13.8 0 7.6-6.5 13.8-14.4 13.8M182.5 42c-.8-13.1-11.7-23.6-25-23.6-12.9 0-23.4 10.5-23.4 23.4 0 12.9 10.5 23.4 23.4 23.4h1.5c5.6 0 10.8-2 14.9-5.3 1.6 3.1 4.8 5.2 8.6 5.2h.1V42.4l-.1-.4zm106.8 13.8c-8 0-14.4-6.2-14.4-13.8 0-7.6 6.5-13.8 14.4-13.8 8 0 14.4 6.2 14.4 13.8 0 7.6-6.4 13.8-14.4 13.8m.8-37.4c-13.3 0-24.2 10.5-25 23.6v38h.1c5.1 0 9.3-4 9.6-9V60.8c3.9 2.8 8.7 4.5 13.8 4.5h1.5c12.9 0 23.4-10.5 23.4-23.4 0-13-10.5-23.5-23.4-23.5"/><path fill="#FFF" d="M85.9 22.9l-.1-6.5c0-6.4-6.2-8-13.6-8-5.5 0-30.1 1.5-30.1 1.5-22.2 0-33.6 7.9-33.6 26.4L5 80.9h19.5l26-8.6c19.6 0 27.3-5.4 27.3-22.3l8.1-27.1z"/><path fill="#FFF" d="M25.2 83.3H2.4V43.1c0-3.3 0-5.4.1-6.8C2.5 16.4 19 2.5 42.7 2.5h29.8c8.8 0 16 6.4 16 14.3v2.8l.1 5.8v25.8c0 15.3-16.3 32.3-38 32.3l-25.4-.2z"/><path fill="#FFF" d="M72.5 0H42.7C17.6 0 0 14.9 0 36.3h.1C0 37 0 37.6 0 38.1v47.7h25.2l25.2.1c21.2 0 40.5-16.6 40.5-34.8V16.5C90.8 7.4 82.6 0 72.5 0m0 4.9C80 4.9 86 10.2 86 16.7v.3l.1 6.6V51c-.1 14.8-16 30-35.6 30l-25.2-.1H5V36.2v.2C5 17.6 20.6 5 42.8 5h29.7"/><path fill="#BED733" d="M72.4 4.7c7.5 0 13.5 5.2 13.5 11.7h-14c-41 0-28.4 64.5-66.9 64.5V35.7c0-18.6 15.5-31 37.7-31h29.7z"/><defs><path id="a" d="M24.4 80.9h26c19.6 0 35.5-13.7 35.5-30.6V22.1h-10c-35.9 0-24.4 45.3-51.5 58.8"/></defs><clipPath id="b"><use xlink:href="#a" overflow="visible"/></clipPath><linearGradient id="c" gradientUnits="userSpaceOnUse" x1="-34.958" y1="155.078" x2="-31.827" y2="155.078" gradientTransform="scale(-9.4473 9.4473) rotate(86.9 58.627 95.587)"><stop offset="0" stop-color="#5c9db9"/><stop offset="1" stop-color="#3a7996"/></linearGradient><path clip-path="url(#b)" fill="url(#c)" d="M89 22.3l-3.3 61.9-64.5-3.5 3.3-61.9z"/></svg>