<?xml version="1.0" encoding="utf-8"?>
<!-- Generator: Adobe Illustrator 18.1.1, SVG Export Plug-In . SVG Version: 6.00 Build 0)  -->
<!DOCTYPE svg PUBLIC "-//W3C//DTD SVG 1.1//EN" "http://www.w3.org/Graphics/SVG/1.1/DTD/svg11.dtd">
<svg version="1.1" id="Layer_1" xmlns="http://www.w3.org/2000/svg" xmlns:xlink="http://www.w3.org/1999/xlink" x="0px" y="0px"
	 viewBox="0 0 313.5 85.9" enable-background="new 0 0 313.5 85.9" xml:space="preserve">
<g>
	<g>
		<path fill="#284756" d="M104.8,36.8c0-10.1,8.3-18.4,18.4-18.4h12l0,0.2c-0.1,5.5-4.5,10.3-10,10.4h-2c-4.3,0-7.8,3.5-7.8,7.8
			v19.3c-0.6,5.1-4.9,9-10,9.2l-0.6,0V36.8z"/>
		<path fill="#284756" d="M256.3,65.2c-5.4-0.4-9.6-4.9-9.6-10.3V36.7h0c-0.3-4.6-4.2-8.3-8.9-8.3c-4.8,0-8.7,3.7-8.9,8.4l0,0.5V55
			c0,5.4-4.2,9.9-9.6,10.3l-0.7,0V37.3c0-4.9-4-8.9-8.9-8.9c-4.8,0-8.7,3.8-8.9,8.5l0,0.4V55c0,5.4-4.2,9.9-9.6,10.3l-0.7,0V36.7h0
			c0.3-10.3,8.8-18.5,19.1-18.5c5.3,0,10.4,2.2,14,6.1c3.6-3.9,8.7-6.1,14-6.1c10.6,0,19.1,8.6,19.1,19.1v27.9L256.3,65.2z"/>
		<path fill="#284756" d="M158.3,55.8c-8,0-14.4-6.2-14.4-13.8c0-7.6,6.5-13.8,14.4-13.8c8,0,14.4,6.2,14.4,13.8
			C172.7,49.6,166.2,55.8,158.3,55.8 M182.5,42L182.5,42c-0.8-13.1-11.7-23.6-25-23.6c-12.9,0-23.4,10.5-23.4,23.4
			c0,12.9,10.5,23.4,23.4,23.4v0l1.5,0c5.6,0,10.8-2,14.9-5.3c1.6,3.1,4.8,5.2,8.6,5.2h0.1V43.3l0-0.9L182.5,42z"/>
		<path fill="#284756" d="M289.3,55.8c-8,0-14.4-6.2-14.4-13.8c0-7.6,6.5-13.8,14.4-13.8c8,0,14.4,6.2,14.4,13.8
			C303.7,49.6,297.3,55.8,289.3,55.8 M290.1,18.4c-13.3,0-24.2,10.5-25,23.6h0l0,0.5l0,0.9v36.6h0.1c5.1,0,9.3-4,9.6-9V60.8
			c3.9,2.8,8.7,4.5,13.8,4.5l1.5,0v0c12.9,0,23.4-10.5,23.4-23.4C313.5,28.9,303,18.4,290.1,18.4"/>
		<path fill="#FFFFFF" d="M85.9,22.9l-0.1-6.5h0c0-6.4-6.2-8-13.6-8c-5.5,0-30.1,1.5-30.1,1.5c-22.2,0-33.6,7.9-33.6,26.4L5,80.9
			l0.4,0h19.1l0,0l26-8.6c19.6,0,27.3-5.4,27.3-22.3L85.9,22.9L85.9,22.9z"/>
		<path fill="#FFFFFF" d="M25.2,83.3l-22.8,0V43.1c0-3.3,0-5.4,0.1-6.8H2.5C2.5,16.4,19,2.5,42.7,2.5h29.8c8.8,0,16,6.4,16,14.3
			l0,2.8h0l0.1,5.8l0,0v25.8c0,15.3-16.3,32.3-38,32.3L25.2,83.3z"/>
		<path fill="#FFFFFF" d="M72.5,0H42.7C17.6,0,0,14.9,0,36.3h0.1C0,37,0,37.6,0,38.1v5.1v15.4v22.3v4.9h4.9l20.3,0l25.2,0.1
			c21.2,0,40.5-16.6,40.5-34.8V26.9l0,0l0-3.4l0-3.8l0-1.5l0-1.2v-0.5v0C90.8,7.4,82.6,0,72.5,0 M72.5,4.9C80,4.9,86,10.2,86,16.7h0
			l0,0.3h0l0.1,6.6l0,0v0v27.4C86,65.8,70.1,81,50.5,81l-25.2-0.1l-20.3,0V36.2v0.2c0-18.8,15.6-31.4,37.8-31.4H72.5"/>
		<path fill="#BED733" d="M72.4,4.7c7.5,0,13.5,5.2,13.5,11.7h-14c-41,0-28.4,64.5-66.9,64.5V35.7c0-18.6,15.5-31,37.7-31H72.4z"/>
	</g>
	<g>
		<defs>
			<path id="SVGID_1_" d="M24.4,80.9h26c19.6,0,35.5-13.7,35.5-30.6V22.1l-10,0C40,22.1,51.5,67.4,24.4,80.9"/>
		</defs>
		<clipPath id="SVGID_2_">
			<use xlink:href="#SVGID_1_"  overflow="visible"/>
		</clipPath>
		
			<linearGradient id="SVGID_3_" gradientUnits="userSpaceOnUse" x1="-34.958" y1="155.0778" x2="-31.8274" y2="155.0778" gradientTransform="matrix(-0.5109 9.4335 9.4335 0.5109 -1425.6349 301.1468)">
			<stop  offset="0" style="stop-color:#5C9DB9"/>
			<stop  offset="1" style="stop-color:#3A7996"/>
		</linearGradient>
		<polygon clip-path="url(#SVGID_2_)" fill="url(#SVGID_3_)" points="89,22.3 85.7,84.2 21.2,80.7 24.5,18.8 		"/>
	</g>
</g>
</svg>
